<svg version="1" xmlns="http://www.w3.org/2000/svg" width="933.333" height="933.333" viewBox="0 0 700.000000 700.000000"><path d="M334.7 7.6c-.1.1-4.2.5-9.2.8-7.9.5-14.3 1.2-29 3.2-3.2.4-28.8 5.7-33 6.8-4.9 1.3-14.7 4.3-23 7.1C145.8 57.2 68.4 130.8 31.6 223.9c-10.8 27.3-18.4 56.5-21.1 81.1-.4 3.6-.9 7.3-1.1 8.4-2.3 12.2-2.2 60.7.1 74.5.3 1.4.7 5.1 1 8.4.5 4.6 6.6 35.6 7.9 40.2.2.5.6 2.3 1.1 4C26 466 41.7 502.4 56.8 527c11.4 18.6 26.7 39.4 37 50.2l3.6 3.8-2.5 2.6c-1.3 1.4-17.4 17.6-35.7 35.9l-33.3 33.3 10.6 10.6 10.7 10.7 33.3-33.3c18.3-18.3 34.4-34.4 35.9-35.7l2.5-2.4 4.3 4c3.5 3.1 12 10 26.3 21.1 7.8 6.1 31.6 20.6 45 27.4 28.4 14.5 64.5 26.8 91.5 31.3 1.9.3 4.6.8 6 1 4.6 1 6.5 1.2 12.5 2 3.2.4 6.8.9 7.8 1.1 4 .7 27 1.8 39.7 1.8 18.5-.1 29.6-.9 51.5-4 9.5-1.3 33-6.7 45.5-10.5 38.6-11.6 76.3-30.8 108.7-55.6 8.4-6.4 10.2-7.9 19.2-15.8 13.6-11.9 33.2-32.9 44.9-48 15.7-20.3 34.2-51.8 42.9-73 8.3-20.2 12.5-32.3 16.8-49.5 1.9-7.4 3.6-14.9 3.9-16.5.3-1.7 1-5.5 1.6-8.5 1.2-6.1 1.5-7.9 3-19.5 2.3-17.6 3-44.2 1.7-64.5-3.9-60.5-24.2-119.1-59-170.5-6.1-9-22-29-29.7-37.4-2.2-2.5-4-4.7-4-5 0-.6 5.8-7.9 10.8-13.6 1.5-1.7 8.5-10 15.6-18.5 7.2-8.5 13.5-16 14.1-16.6.5-.6 2.5-2.9 4.3-5.2 1.9-2.3 4.3-5.1 5.4-6.4 1.1-1.3 3.7-4.3 5.7-6.8s4-4.8 4.6-5.2c.5-.4.7-1 .3-1.3-.3-.4-3.7 2-7.5 5.1-3.7 3.2-10.8 9.2-15.8 13.4-4.9 4.2-13.2 11.2-18.4 15.5C597.8 91.7 586.5 101 586 101c-.4 0-2.2-1.4-4.1-3.1C563.2 81 541 64.7 521 53.1c-10.7-6.2-37.7-18.9-49.7-23.5-39-14.7-77.2-21.7-120.1-22-9-.1-16.4 0-16.5 0z"/></svg>